<?xml version="1.0" encoding="UTF-8" standalone="no"?><!DOCTYPE svg PUBLIC "-//W3C//DTD SVG 1.1//EN" "http://www.w3.org/Graphics/SVG/1.1/DTD/svg11.dtd"><svg width="100%" height="100%" viewBox="0 0 556 203" version="1.1" xmlns="http://www.w3.org/2000/svg" xmlns:xlink="http://www.w3.org/1999/xlink" xml:space="preserve" xmlns:serif="http://www.serif.com/" style="fill-rule:evenodd;clip-rule:evenodd;stroke-linejoin:round;stroke-miterlimit:2;"><g id="Logo-4-barevne" serif:id="Logo 4 barevne"></g><g id="Logo-3-barevne" serif:id="Logo 3 barevne"></g><g id="Logo-4-černá-bílá" serif:id="Logo 4 černá bílá"></g><g id="Logo-4-černá-bílá1" serif:id="Logo 4 černá bílá"><g id="Logo-4-barevne1" serif:id="Logo 4 barevne"><g><g><path d="M138.409,201.787c-3.32,-0 -6.204,-0.751 -8.654,-2.253c-2.45,-1.502 -4.344,-3.625 -5.682,-6.369c-1.338,-2.744 -2.007,-5.983 -2.007,-9.717c-0,-2.821 0.378,-5.355 1.135,-7.601c0.758,-2.247 1.847,-4.163 3.27,-5.75c1.422,-1.586 3.14,-2.806 5.152,-3.658c2.013,-0.852 4.275,-1.279 6.786,-1.279c3.354,0 6.257,0.743 8.708,2.228c2.45,1.485 4.34,3.592 5.669,6.319c1.329,2.727 1.994,5.957 1.994,9.691c-0,2.821 -0.383,5.363 -1.149,7.627c-0.766,2.263 -1.86,4.196 -3.283,5.799c-1.422,1.604 -3.14,2.832 -5.152,3.684c-2.013,0.853 -4.275,1.279 -6.787,1.279Zm0,-3.72c2.536,-0 4.694,-0.574 6.472,-1.722c1.779,-1.148 3.14,-2.814 4.084,-4.999c0.944,-2.185 1.416,-4.818 1.416,-7.898c0,-4.626 -1.038,-8.211 -3.114,-10.754c-2.075,-2.542 -5.028,-3.813 -8.858,-3.813c-2.501,-0 -4.646,0.569 -6.433,1.709c-1.786,1.14 -3.152,2.798 -4.096,4.975c-0.944,2.177 -1.416,4.805 -1.416,7.883c0,4.593 1.047,8.178 3.139,10.754c2.093,2.576 5.028,3.865 8.806,3.865Z" style="fill-rule:nonzero;"/><path d="M163.409,201.685c-0.621,0 -1.104,-0.18 -1.448,-0.542c-0.345,-0.361 -0.517,-0.869 -0.517,-1.525l0,-32.215c0,-0.689 0.168,-1.218 0.503,-1.587c0.336,-0.37 0.773,-0.554 1.313,-0.554c0.526,-0 0.921,0.094 1.184,0.283c0.263,0.188 0.567,0.513 0.91,0.973l22.065,29.426l-1.21,0l0,-28.639c0,-0.658 0.173,-1.162 0.517,-1.515c0.344,-0.352 0.827,-0.528 1.449,-0.528c0.621,-0 1.096,0.176 1.423,0.528c0.328,0.353 0.491,0.857 0.491,1.515l0,32.335c0,0.641 -0.151,1.142 -0.454,1.503c-0.302,0.362 -0.716,0.542 -1.24,0.542c-0.49,0 -0.892,-0.102 -1.204,-0.308c-0.313,-0.206 -0.641,-0.53 -0.985,-0.973l-22.041,-29.425l1.159,0l0,28.639c0,0.656 -0.164,1.164 -0.491,1.525c-0.328,0.362 -0.802,0.542 -1.424,0.542Z" style="fill-rule:nonzero;"/><path d="M200.823,201.334c-0.739,-0 -1.305,-0.197 -1.699,-0.591c-0.394,-0.395 -0.591,-0.961 -0.591,-1.699l-0,-31.14c-0,-0.739 0.197,-1.305 0.591,-1.699c0.394,-0.395 0.96,-0.592 1.699,-0.592l9.776,0c5.782,0 10.24,1.524 13.374,4.571c3.134,3.047 4.701,7.468 4.701,13.264c0,2.889 -0.4,5.445 -1.201,7.666c-0.801,2.222 -1.972,4.088 -3.514,5.599c-1.542,1.511 -3.429,2.659 -5.662,3.444c-2.234,0.784 -4.8,1.177 -7.698,1.177l-9.776,-0Zm1.885,-3.571l7.593,-0c2.345,-0 4.389,-0.302 6.132,-0.906c1.742,-0.605 3.196,-1.498 4.361,-2.68c1.164,-1.183 2.035,-2.671 2.614,-4.466c0.578,-1.794 0.867,-3.882 0.867,-6.263c-0,-4.761 -1.165,-8.329 -3.494,-10.703c-2.329,-2.374 -5.822,-3.56 -10.48,-3.56l-7.593,-0l-0,28.578Z" style="fill-rule:nonzero;"/><path d="M237.34,201.689c-0.676,-0 -1.191,-0.195 -1.545,-0.583c-0.355,-0.389 -0.532,-0.921 -0.532,-1.596l-0,-31.769c-0,-0.709 0.185,-1.241 0.557,-1.596c0.372,-0.354 0.895,-0.532 1.571,-0.532l12.008,0c3.817,0 6.756,0.895 8.816,2.686c2.061,1.79 3.091,4.34 3.091,7.65c-0,2.095 -0.465,3.91 -1.394,5.447c-0.929,1.537 -2.288,2.702 -4.078,3.496c-1.791,0.794 -3.936,1.191 -6.435,1.191l0.507,-0.659l1.013,0c1.317,0 2.466,0.338 3.445,1.014c0.98,0.675 1.875,1.756 2.686,3.242l4.864,9.07c0.27,0.473 0.397,0.937 0.38,1.393c-0.017,0.456 -0.178,0.828 -0.482,1.115c-0.304,0.287 -0.743,0.431 -1.317,0.431c-0.574,-0 -1.047,-0.136 -1.419,-0.406c-0.371,-0.27 -0.692,-0.658 -0.962,-1.165l-5.523,-10.235c-0.777,-1.452 -1.672,-2.424 -2.685,-2.913c-1.014,-0.49 -2.348,-0.735 -4.003,-0.735l-6.486,-0l0,13.275c0,0.675 -0.169,1.207 -0.506,1.596c-0.338,0.388 -0.862,0.583 -1.571,0.583Zm2.077,-18.747l9.374,-0c2.77,-0 4.864,-0.583 6.283,-1.748c1.418,-1.166 2.128,-2.914 2.128,-5.245c-0,-2.263 -0.71,-3.977 -2.128,-5.142c-1.419,-1.166 -3.513,-1.748 -6.283,-1.748l-9.374,-0l0,13.883Zm8.715,-19.913c-0.506,0 -0.979,-0.11 -1.418,-0.329c-0.44,-0.22 -0.828,-0.566 -1.166,-1.039l-4.459,-6.283c-0.236,-0.337 -0.32,-0.667 -0.253,-0.988c0.068,-0.32 0.237,-0.565 0.507,-0.734c0.27,-0.169 0.582,-0.228 0.937,-0.178c0.355,0.051 0.684,0.245 0.988,0.583l4.864,5.827l4.915,-5.827c0.27,-0.338 0.583,-0.532 0.937,-0.583c0.355,-0.05 0.667,0.009 0.938,0.178c0.27,0.169 0.439,0.414 0.506,0.734c0.068,0.321 -0.017,0.651 -0.253,0.988l-4.408,6.283c-0.372,0.473 -0.769,0.819 -1.191,1.039c-0.422,0.219 -0.903,0.329 -1.444,0.329Z" style="fill-rule:nonzero;"/><path d="M270.694,201.334c-0.739,-0 -1.306,-0.197 -1.7,-0.591c-0.394,-0.395 -0.591,-0.961 -0.591,-1.699l0,-31.14c0,-0.739 0.197,-1.305 0.591,-1.699c0.394,-0.395 0.961,-0.592 1.7,-0.592l18.813,0c0.576,0 1.02,0.148 1.333,0.444c0.312,0.296 0.469,0.715 0.469,1.257c-0,0.576 -0.157,1.015 -0.469,1.319c-0.313,0.304 -0.757,0.456 -1.333,0.456l-17.048,-0l-0,12.382l15.987,-0c0.592,-0 1.04,0.148 1.345,0.443c0.305,0.296 0.457,0.723 0.457,1.281c0,0.576 -0.152,1.012 -0.457,1.307c-0.305,0.296 -0.753,0.444 -1.345,0.444l-15.987,0l-0,12.912l17.048,0c0.576,0 1.02,0.148 1.333,0.444c0.312,0.296 0.469,0.723 0.469,1.281c-0,0.576 -0.157,1.011 -0.469,1.307c-0.313,0.296 -0.757,0.444 -1.333,0.444l-18.813,-0Z" style="fill-rule:nonzero;"/><path d="M297.387,201.635c-0.641,0.034 -1.142,-0.135 -1.504,-0.505c-0.361,-0.37 -0.542,-0.825 -0.542,-1.365c0,-0.409 0.132,-0.778 0.395,-1.107c0.263,-0.329 0.659,-0.51 1.187,-0.544l1.6,-0.128c1.702,-0.137 3.009,-0.74 3.921,-1.809c0.912,-1.069 1.368,-2.524 1.368,-4.365l-0,-24.412c-0,-0.705 0.18,-1.238 0.54,-1.598c0.361,-0.36 0.876,-0.54 1.547,-0.54c0.672,-0 1.187,0.18 1.548,0.54c0.36,0.36 0.54,0.893 0.54,1.598l-0,24.442c-0,1.949 -0.34,3.617 -1.019,5.005c-0.679,1.388 -1.681,2.473 -3.006,3.256c-1.325,0.783 -2.96,1.25 -4.905,1.403l-1.67,0.129Z" style="fill-rule:nonzero;"/></g><g><path d="M330.275,201.71c-0.842,-0 -1.488,-0.239 -1.938,-0.718c-0.45,-0.479 -0.674,-1.139 -0.674,-1.982l-0,-31.11c-0,-0.875 0.224,-1.538 0.674,-1.988c0.45,-0.45 1.096,-0.675 1.938,-0.675c0.842,0 1.488,0.225 1.938,0.675c0.45,0.45 0.675,1.113 0.675,1.988l-0,13.756l0.101,-0l15.597,-15.047c0.481,-0.462 0.953,-0.806 1.415,-1.033c0.463,-0.226 0.973,-0.339 1.532,-0.339c0.794,0 1.365,0.2 1.714,0.599c0.349,0.399 0.489,0.871 0.419,1.414c-0.07,0.544 -0.348,1.054 -0.834,1.531l-16.158,15.404l0.065,-2.557l16.861,16.234c0.602,0.559 0.92,1.141 0.954,1.748c0.033,0.606 -0.151,1.108 -0.553,1.505c-0.402,0.396 -0.988,0.595 -1.758,0.595c-0.654,-0 -1.189,-0.137 -1.606,-0.411c-0.416,-0.275 -0.892,-0.674 -1.426,-1.199l-16.222,-15.459l-0.101,-0l-0,14.369c-0,0.843 -0.217,1.503 -0.65,1.982c-0.433,0.479 -1.087,0.718 -1.963,0.718Z" style="fill-rule:nonzero;"/><path d="M371.47,201.811c-2.398,0 -4.509,-0.316 -6.335,-0.948c-1.825,-0.632 -3.358,-1.571 -4.598,-2.819c-1.24,-1.247 -2.173,-2.797 -2.8,-4.649c-0.627,-1.853 -0.941,-3.999 -0.941,-6.44l0,-19.055c0,-0.899 0.225,-1.568 0.675,-2.006c0.45,-0.438 1.096,-0.657 1.938,-0.657c0.842,0 1.488,0.219 1.938,0.657c0.45,0.438 0.674,1.107 0.674,2.006l0,18.931c0,3.482 0.804,6.089 2.41,7.821c1.606,1.731 3.952,2.597 7.039,2.597c3.097,-0 5.44,-0.866 7.029,-2.597c1.589,-1.732 2.383,-4.339 2.383,-7.821l0,-18.931c0,-0.899 0.225,-1.568 0.675,-2.006c0.45,-0.438 1.096,-0.657 1.939,-0.657c0.817,0 1.451,0.219 1.901,0.657c0.45,0.438 0.675,1.107 0.675,2.006l-0,19.055c-0,3.232 -0.551,5.958 -1.653,8.177c-1.103,2.219 -2.739,3.887 -4.91,5.004c-2.171,1.117 -4.85,1.675 -8.039,1.675Z" style="fill-rule:nonzero;"/><path d="M396.346,201.334c-0.91,-0 -1.607,-0.242 -2.09,-0.726c-0.484,-0.483 -0.726,-1.18 -0.726,-2.089l0,-30.091c0,-0.909 0.242,-1.605 0.726,-2.089c0.483,-0.484 1.18,-0.726 2.09,-0.726l12.057,0c2.48,0 4.588,0.369 6.325,1.107c1.737,0.739 3.065,1.8 3.985,3.185c0.919,1.385 1.378,3.055 1.378,5.01c0,2.191 -0.639,4.03 -1.918,5.516c-1.279,1.486 -3.019,2.478 -5.22,2.974l-0,-0.744c2.509,0.332 4.474,1.261 5.893,2.785c1.418,1.525 2.128,3.523 2.128,5.994c-0,3.175 -1.05,5.618 -3.151,7.328c-2.101,1.711 -5.046,2.566 -8.833,2.566l-12.644,-0Zm2.23,-4.065l9.823,-0c2.531,-0 4.408,-0.497 5.631,-1.49c1.222,-0.992 1.834,-2.496 1.834,-4.511c-0,-2.048 -0.612,-3.561 -1.834,-4.537c-1.223,-0.976 -3.1,-1.463 -5.631,-1.463l-9.823,-0l-0,12.001Zm-0,-16.067l8.991,0c2.464,0 4.315,-0.489 5.555,-1.468c1.239,-0.978 1.859,-2.409 1.859,-4.294c-0,-1.894 -0.62,-3.328 -1.859,-4.301c-1.24,-0.974 -3.091,-1.46 -5.555,-1.46l-8.991,-0l-0,11.523Z" style="fill-rule:nonzero;"/><path d="M426.54,201.689c-0.675,-0 -1.216,-0.152 -1.621,-0.456c-0.405,-0.304 -0.642,-0.71 -0.709,-1.216c-0.068,-0.507 0.033,-1.081 0.304,-1.723l13.73,-30.806c0.338,-0.811 0.769,-1.385 1.292,-1.723c0.524,-0.338 1.107,-0.506 1.749,-0.506c0.608,-0 1.173,0.168 1.697,0.506c0.523,0.338 0.954,0.912 1.292,1.723l13.731,30.806c0.304,0.642 0.422,1.224 0.354,1.748c-0.067,0.523 -0.287,0.929 -0.658,1.216c-0.372,0.287 -0.895,0.431 -1.571,0.431c-0.743,-0 -1.334,-0.186 -1.773,-0.558c-0.439,-0.371 -0.828,-0.946 -1.166,-1.722l-3.546,-8.209l2.381,1.419l-21.584,0l2.33,-1.419l-3.496,8.209c-0.337,0.81 -0.709,1.393 -1.114,1.748c-0.406,0.354 -0.946,0.532 -1.622,0.532Zm14.643,-30.249l-7.651,18.139l-1.266,-1.216l17.885,-0l-1.165,1.216l-7.701,-18.139l-0.102,0Zm2.23,-9.12c-0.338,0.371 -0.71,0.566 -1.115,0.583c-0.405,0.016 -0.769,-0.093 -1.089,-0.33c-0.321,-0.236 -0.532,-0.54 -0.634,-0.912c-0.101,-0.371 -0.017,-0.76 0.254,-1.165l4.256,-6.232c0.304,-0.473 0.684,-0.769 1.14,-0.887c0.456,-0.118 0.895,-0.101 1.317,0.051c0.422,0.152 0.768,0.388 1.039,0.709c0.27,0.321 0.422,0.693 0.456,1.115c0.033,0.422 -0.135,0.836 -0.507,1.241l-5.117,5.827Z" style="fill-rule:nonzero;"/><path d="M465.5,201.71c-0.785,-0 -1.39,-0.221 -1.815,-0.664c-0.426,-0.443 -0.639,-1.074 -0.639,-1.892l0,-31.275c0,-0.852 0.211,-1.505 0.632,-1.96c0.42,-0.454 0.97,-0.682 1.648,-0.682c0.64,0 1.121,0.117 1.441,0.35c0.32,0.233 0.697,0.629 1.13,1.188l20.856,27.497l-1.259,0l0,-26.516c0,-0.803 0.213,-1.424 0.639,-1.862c0.426,-0.438 1.031,-0.657 1.815,-0.657c0.784,0 1.38,0.219 1.79,0.657c0.409,0.438 0.613,1.059 0.613,1.862l0,31.456c0,0.78 -0.19,1.391 -0.57,1.834c-0.38,0.443 -0.897,0.664 -1.552,0.664c-0.62,-0 -1.12,-0.125 -1.498,-0.375c-0.377,-0.25 -0.783,-0.65 -1.216,-1.199l-20.82,-27.497l1.208,0l0,26.515c0,0.818 -0.204,1.449 -0.613,1.892c-0.409,0.443 -1.006,0.664 -1.79,0.664Z" style="fill-rule:nonzero;"/><path d="M502.95,201.334c-0.91,-0 -1.607,-0.242 -2.09,-0.726c-0.483,-0.483 -0.725,-1.18 -0.725,-2.089l-0,-30.091c-0,-0.909 0.242,-1.605 0.725,-2.089c0.483,-0.484 1.18,-0.726 2.09,-0.726l18.484,0c0.698,0 1.236,0.181 1.614,0.542c0.378,0.361 0.567,0.873 0.567,1.537c-0,0.698 -0.189,1.234 -0.567,1.607c-0.378,0.373 -0.916,0.559 -1.614,0.559l-16.254,0l0,11.222l15.169,-0c0.721,-0 1.265,0.18 1.631,0.541c0.366,0.361 0.549,0.886 0.549,1.574c0,0.698 -0.183,1.227 -0.549,1.588c-0.366,0.361 -0.91,0.542 -1.631,0.542l-15.169,-0l0,11.764l16.254,-0c0.698,-0 1.236,0.18 1.614,0.541c0.378,0.361 0.567,0.886 0.567,1.574c-0,0.698 -0.189,1.227 -0.567,1.588c-0.378,0.361 -0.916,0.542 -1.614,0.542l-18.484,-0Z" style="fill-rule:nonzero;"/><path d="M531.628,201.71c-0.842,-0 -1.488,-0.239 -1.938,-0.718c-0.45,-0.479 -0.675,-1.139 -0.675,-1.982l0,-31.11c0,-0.875 0.225,-1.538 0.675,-1.988c0.45,-0.45 1.096,-0.675 1.938,-0.675c0.842,0 1.488,0.225 1.938,0.675c0.449,0.45 0.674,1.113 0.674,1.988l0,13.756l0.102,-0l15.597,-15.047c0.481,-0.462 0.953,-0.806 1.415,-1.033c0.463,-0.226 0.973,-0.339 1.531,-0.339c0.795,0 1.366,0.2 1.715,0.599c0.349,0.399 0.489,0.871 0.419,1.414c-0.07,0.544 -0.348,1.054 -0.835,1.531l-16.157,15.404l0.065,-2.557l16.86,16.234c0.603,0.559 0.921,1.141 0.954,1.748c0.034,0.606 -0.15,1.108 -0.552,1.505c-0.402,0.396 -0.988,0.595 -1.758,0.595c-0.654,-0 -1.19,-0.137 -1.606,-0.411c-0.417,-0.275 -0.892,-0.674 -1.427,-1.199l-16.221,-15.459l-0.102,-0l0,14.369c0,0.843 -0.216,1.503 -0.649,1.982c-0.433,0.479 -1.088,0.718 -1.963,0.718Z" style="fill-rule:nonzero;"/></g></g><g id="_-Group-" serif:id="(Group)"><path d="M0,67.388l0,97.689l71.094,-66.298l-71.094,-31.391Z"/><path d="M77.262,202.099l-4.797,-90.38l-67.813,62.835l72.61,27.545Z"/><path d="M196.946,-0l-6.301,55.532l-103.998,142.025l-4.506,-97.042l114.805,-100.515Z"/></g></g><g><path d="M396.788,137.802c-1.659,0 -3.083,-0.384 -4.272,-1.153c-1.19,-0.769 -2.103,-1.839 -2.74,-3.209c-0.637,-1.37 -0.956,-2.968 -0.956,-4.795c0,-1.37 0.18,-2.601 0.541,-3.695c0.361,-1.094 0.883,-2.025 1.568,-2.794c0.685,-0.769 1.52,-1.358 2.506,-1.767c0.985,-0.408 2.103,-0.612 3.353,-0.612c0.913,-0 1.844,0.162 2.794,0.486c0.949,0.325 1.796,0.86 2.541,1.605c0.12,0.12 0.186,0.252 0.198,0.396c0.013,0.144 -0.012,0.283 -0.072,0.415c-0.06,0.132 -0.15,0.234 -0.27,0.306c-0.12,0.072 -0.264,0.102 -0.433,0.09c-0.168,-0.012 -0.336,-0.102 -0.504,-0.27c-0.697,-0.625 -1.412,-1.052 -2.145,-1.28c-0.733,-0.228 -1.448,-0.342 -2.145,-0.342c-1.034,-0 -1.947,0.168 -2.74,0.504c-0.793,0.337 -1.46,0.824 -2.001,1.46c-0.541,0.637 -0.95,1.418 -1.226,2.344c-0.276,0.925 -0.415,1.989 -0.415,3.19c0,2.404 0.553,4.29 1.659,5.66c1.105,1.37 2.68,2.055 4.723,2.055c0.697,0 1.412,-0.114 2.145,-0.342c0.733,-0.228 1.448,-0.655 2.145,-1.28c0.168,-0.168 0.336,-0.258 0.504,-0.27c0.169,-0.012 0.313,0.018 0.433,0.09c0.12,0.072 0.21,0.174 0.27,0.306c0.06,0.132 0.085,0.271 0.072,0.415c-0.012,0.144 -0.078,0.276 -0.198,0.396c-0.745,0.745 -1.592,1.28 -2.541,1.605c-0.95,0.324 -1.881,0.486 -2.794,0.486Z" style="fill-rule:nonzero;"/><path d="M407.134,137.73c-0.24,0 -0.426,-0.072 -0.558,-0.216c-0.133,-0.144 -0.199,-0.337 -0.199,-0.577l0,-16.295c0,-0.265 0.066,-0.463 0.199,-0.595c0.132,-0.132 0.318,-0.198 0.558,-0.198c0.241,-0 0.421,0.066 0.541,0.198c0.12,0.132 0.18,0.33 0.18,0.595l0,3.497l-0.36,-0c0.457,-1.418 1.268,-2.512 2.433,-3.281c1.166,-0.769 2.518,-1.153 4.056,-1.153c0.216,-0 0.403,0.042 0.559,0.126c0.156,0.084 0.234,0.246 0.234,0.486c0,0.241 -0.06,0.427 -0.18,0.559c-0.12,0.132 -0.324,0.21 -0.613,0.235l-0.433,0.036c-1.778,0.168 -3.166,0.769 -4.163,1.802c-0.998,1.034 -1.497,2.404 -1.497,4.11l0,9.878c0,0.24 -0.06,0.433 -0.18,0.577c-0.12,0.144 -0.312,0.216 -0.577,0.216Z" style="fill-rule:nonzero;"/><path d="M425.232,137.802c-1.73,0 -3.22,-0.36 -4.47,-1.081c-1.25,-0.721 -2.217,-1.749 -2.902,-3.083c-0.685,-1.334 -1.028,-2.926 -1.028,-4.776c0,-1.827 0.343,-3.419 1.028,-4.777c0.685,-1.358 1.634,-2.416 2.848,-3.173c1.213,-0.757 2.613,-1.135 4.2,-1.135c1.129,-0 2.133,0.192 3.01,0.576c0.877,0.385 1.622,0.938 2.235,1.659c0.613,0.721 1.082,1.598 1.406,2.632c0.325,1.033 0.487,2.199 0.487,3.497c-0,0.312 -0.066,0.546 -0.198,0.703c-0.133,0.156 -0.331,0.234 -0.595,0.234l-13.447,-0l-0,-1.334l13.447,-0l-0.613,0.433c-0,-1.466 -0.216,-2.722 -0.649,-3.768c-0.433,-1.045 -1.076,-1.85 -1.929,-2.415c-0.853,-0.565 -1.917,-0.847 -3.19,-0.847c-1.394,-0 -2.578,0.33 -3.551,0.991c-0.974,0.661 -1.707,1.556 -2.2,2.686c-0.492,1.129 -0.739,2.415 -0.739,3.857l0,0.181c0,2.403 0.595,4.26 1.785,5.57c1.19,1.309 2.854,1.964 4.993,1.964c0.961,0 1.863,-0.126 2.704,-0.378c0.841,-0.253 1.67,-0.703 2.487,-1.352c0.169,-0.144 0.343,-0.222 0.523,-0.234c0.18,-0.012 0.337,0.024 0.469,0.108c0.132,0.084 0.228,0.192 0.288,0.324c0.06,0.132 0.066,0.283 0.018,0.451c-0.048,0.168 -0.168,0.324 -0.36,0.468c-0.745,0.625 -1.659,1.118 -2.74,1.479c-1.082,0.36 -2.187,0.54 -3.317,0.54Z" style="fill-rule:nonzero;"/><path d="M442.104,137.802c-1.129,0 -2.151,-0.228 -3.064,-0.685c-0.913,-0.456 -1.634,-1.075 -2.163,-1.856c-0.529,-0.781 -0.793,-1.653 -0.793,-2.614c-0,-1.298 0.318,-2.313 0.955,-3.046c0.637,-0.733 1.73,-1.25 3.281,-1.551c1.55,-0.3 3.683,-0.45 6.399,-0.45l1.478,-0l-0,1.334l-1.406,-0c-2.379,-0 -4.224,0.102 -5.534,0.306c-1.31,0.204 -2.223,0.565 -2.74,1.082c-0.517,0.516 -0.775,1.243 -0.775,2.181c-0,1.153 0.403,2.097 1.208,2.83c0.805,0.733 1.892,1.099 3.262,1.099c1.106,0 2.073,-0.27 2.903,-0.811c0.829,-0.541 1.484,-1.274 1.964,-2.199c0.481,-0.925 0.721,-1.977 0.721,-3.154l0,-4.11c0,-1.731 -0.336,-2.993 -1.009,-3.786c-0.673,-0.793 -1.755,-1.189 -3.245,-1.189c-0.961,-0 -1.88,0.132 -2.758,0.396c-0.877,0.265 -1.796,0.673 -2.758,1.226c-0.216,0.12 -0.402,0.168 -0.558,0.144c-0.157,-0.024 -0.283,-0.09 -0.379,-0.198c-0.096,-0.108 -0.162,-0.24 -0.198,-0.397c-0.036,-0.156 -0.024,-0.306 0.036,-0.45c0.06,-0.145 0.174,-0.265 0.342,-0.361c0.986,-0.601 2.007,-1.045 3.065,-1.334c1.057,-0.288 2.103,-0.432 3.136,-0.432c1.322,-0 2.416,0.228 3.281,0.685c0.865,0.456 1.508,1.153 1.929,2.091c0.42,0.937 0.63,2.139 0.63,3.605l0,10.779c0,0.24 -0.06,0.433 -0.18,0.577c-0.12,0.144 -0.3,0.216 -0.541,0.216c-0.24,0 -0.426,-0.072 -0.558,-0.216c-0.133,-0.144 -0.199,-0.337 -0.199,-0.577l0,-3.785l0.397,-0c-0.24,0.961 -0.649,1.79 -1.226,2.487c-0.577,0.697 -1.28,1.232 -2.109,1.605c-0.829,0.372 -1.76,0.558 -2.794,0.558Z" style="fill-rule:nonzero;"/><path d="M461.5,137.802c-1.202,0 -2.211,-0.234 -3.028,-0.703c-0.818,-0.468 -1.43,-1.141 -1.839,-2.019c-0.409,-0.877 -0.613,-1.94 -0.613,-3.19l0,-10.527l-2.92,-0c-0.24,-0 -0.433,-0.06 -0.577,-0.18c-0.144,-0.121 -0.216,-0.277 -0.216,-0.469c-0,-0.192 0.072,-0.349 0.216,-0.469c0.144,-0.12 0.337,-0.18 0.577,-0.18l2.92,0l0,-4.867c0,-0.264 0.066,-0.463 0.198,-0.595c0.133,-0.132 0.319,-0.198 0.559,-0.198c0.24,-0 0.427,0.066 0.559,0.198c0.132,0.132 0.198,0.331 0.198,0.595l0,4.867l5.156,0c0.264,0 0.462,0.06 0.594,0.18c0.133,0.12 0.199,0.277 0.199,0.469c-0,0.192 -0.066,0.348 -0.199,0.469c-0.132,0.12 -0.33,0.18 -0.594,0.18l-5.156,-0l0,10.202c0,1.563 0.313,2.758 0.938,3.588c0.624,0.829 1.67,1.243 3.136,1.243c0.505,0 0.919,-0.054 1.244,-0.162c0.324,-0.108 0.595,-0.162 0.811,-0.162c0.144,-0 0.27,0.06 0.378,0.18c0.109,0.12 0.163,0.289 0.163,0.505c-0,0.12 -0.03,0.246 -0.09,0.378c-0.06,0.133 -0.175,0.223 -0.343,0.271c-0.24,0.096 -0.583,0.186 -1.027,0.27c-0.445,0.084 -0.86,0.126 -1.244,0.126Z" style="fill-rule:nonzero;"/><path d="M473.974,137.802c-1.731,0 -3.221,-0.36 -4.471,-1.081c-1.249,-0.721 -2.217,-1.749 -2.902,-3.083c-0.685,-1.334 -1.027,-2.926 -1.027,-4.776c-0,-1.827 0.342,-3.419 1.027,-4.777c0.685,-1.358 1.634,-2.416 2.848,-3.173c1.214,-0.757 2.614,-1.135 4.2,-1.135c1.13,-0 2.133,0.192 3.01,0.576c0.878,0.385 1.623,0.938 2.236,1.659c0.613,0.721 1.081,1.598 1.406,2.632c0.324,1.033 0.486,2.199 0.486,3.497c0,0.312 -0.066,0.546 -0.198,0.703c-0.132,0.156 -0.33,0.234 -0.595,0.234l-13.447,-0l0,-1.334l13.447,-0l-0.613,0.433c0,-1.466 -0.216,-2.722 -0.649,-3.768c-0.432,-1.045 -1.075,-1.85 -1.928,-2.415c-0.854,-0.565 -1.917,-0.847 -3.191,-0.847c-1.394,-0 -2.578,0.33 -3.551,0.991c-0.973,0.661 -1.706,1.556 -2.199,2.686c-0.493,1.129 -0.739,2.415 -0.739,3.857l-0,0.181c-0,2.403 0.595,4.26 1.784,5.57c1.19,1.309 2.855,1.964 4.994,1.964c0.961,0 1.862,-0.126 2.703,-0.378c0.842,-0.253 1.671,-0.703 2.488,-1.352c0.168,-0.144 0.342,-0.222 0.523,-0.234c0.18,-0.012 0.336,0.024 0.468,0.108c0.133,0.084 0.229,0.192 0.289,0.324c0.06,0.132 0.066,0.283 0.018,0.451c-0.048,0.168 -0.168,0.324 -0.361,0.468c-0.745,0.625 -1.658,1.118 -2.74,1.479c-1.081,0.36 -2.187,0.54 -3.316,0.54Z" style="fill-rule:nonzero;"/><path d="M492.18,137.802c-1.563,0 -2.927,-0.366 -4.092,-1.099c-1.166,-0.733 -2.067,-1.779 -2.704,-3.137c-0.637,-1.358 -0.955,-2.95 -0.955,-4.777c-0,-1.85 0.312,-3.448 0.937,-4.794c0.625,-1.346 1.52,-2.386 2.686,-3.119c1.165,-0.733 2.541,-1.099 4.128,-1.099c1.682,-0 3.112,0.432 4.29,1.297c1.177,0.866 1.959,2.043 2.343,3.534l-0.396,-0l-0,-11.934c-0,-0.264 0.066,-0.462 0.198,-0.594c0.132,-0.133 0.318,-0.199 0.559,-0.199c0.24,0 0.426,0.066 0.558,0.199c0.133,0.132 0.199,0.33 0.199,0.594l-0,24.263c-0,0.24 -0.066,0.433 -0.199,0.577c-0.132,0.144 -0.318,0.216 -0.558,0.216c-0.241,0 -0.427,-0.072 -0.559,-0.216c-0.132,-0.144 -0.198,-0.337 -0.198,-0.577l-0,-3.966l0.396,0c-0.384,1.467 -1.166,2.638 -2.343,3.515c-1.178,0.878 -2.608,1.316 -4.29,1.316Zm0.036,-1.406c1.273,0 2.379,-0.3 3.316,-0.901c0.938,-0.601 1.659,-1.472 2.163,-2.614c0.505,-1.141 0.758,-2.505 0.758,-4.092c-0,-2.403 -0.559,-4.272 -1.677,-5.606c-1.117,-1.333 -2.638,-2 -4.56,-2c-1.274,-0 -2.38,0.3 -3.317,0.901c-0.937,0.601 -1.658,1.466 -2.163,2.596c-0.505,1.129 -0.757,2.499 -0.757,4.109c-0,2.404 0.565,4.273 1.694,5.606c1.13,1.334 2.644,2.001 4.543,2.001Z" style="fill-rule:nonzero;"/><path d="M522.679,137.802c-1.682,0 -3.106,-0.438 -4.272,-1.316c-1.166,-0.877 -1.953,-2.048 -2.361,-3.515l0.396,0l0,3.966c0,0.24 -0.066,0.433 -0.198,0.577c-0.132,0.144 -0.319,0.216 -0.559,0.216c-0.24,0 -0.426,-0.072 -0.559,-0.216c-0.132,-0.144 -0.198,-0.337 -0.198,-0.577l0,-24.263c0,-0.264 0.066,-0.462 0.198,-0.594c0.133,-0.133 0.319,-0.199 0.559,-0.199c0.24,0 0.427,0.066 0.559,0.199c0.132,0.132 0.198,0.33 0.198,0.594l0,11.934l-0.396,-0c0.408,-1.491 1.195,-2.668 2.361,-3.534c1.166,-0.865 2.59,-1.297 4.272,-1.297c1.586,-0 2.962,0.366 4.128,1.099c1.166,0.733 2.061,1.773 2.686,3.119c0.625,1.346 0.937,2.944 0.937,4.794c0,1.827 -0.318,3.419 -0.955,4.777c-0.637,1.358 -1.532,2.404 -2.686,3.137c-1.154,0.733 -2.524,1.099 -4.11,1.099Zm-0.036,-1.406c1.274,0 2.379,-0.3 3.317,-0.901c0.937,-0.601 1.658,-1.472 2.163,-2.614c0.505,-1.141 0.757,-2.505 0.757,-4.092c-0,-2.403 -0.559,-4.272 -1.676,-5.606c-1.118,-1.333 -2.638,-2 -4.561,-2c-1.274,-0 -2.379,0.3 -3.317,0.901c-0.937,0.601 -1.658,1.466 -2.163,2.596c-0.504,1.129 -0.757,2.499 -0.757,4.109c0,2.404 0.565,4.273 1.695,5.606c1.129,1.334 2.643,2.001 4.542,2.001Z" style="fill-rule:nonzero;"/><path d="M538.65,144.219c-0.216,0 -0.385,-0.06 -0.505,-0.18c-0.12,-0.12 -0.18,-0.276 -0.18,-0.468c-0,-0.193 0.036,-0.385 0.108,-0.577l2.488,-5.732l-0,0.721l-7.211,-16.872c-0.096,-0.241 -0.132,-0.451 -0.108,-0.631c0.024,-0.181 0.102,-0.331 0.235,-0.451c0.132,-0.12 0.318,-0.18 0.558,-0.18c0.217,-0 0.379,0.054 0.487,0.162c0.108,0.108 0.21,0.258 0.306,0.451l6.85,16.547l-0.865,0l6.886,-16.547c0.096,-0.217 0.198,-0.373 0.306,-0.469c0.108,-0.096 0.283,-0.144 0.523,-0.144c0.24,-0 0.415,0.06 0.523,0.18c0.108,0.12 0.168,0.27 0.18,0.451c0.012,0.18 -0.03,0.378 -0.126,0.594l-9.59,22.497c-0.096,0.24 -0.204,0.408 -0.324,0.504c-0.121,0.096 -0.301,0.144 -0.541,0.144Z" style="fill-rule:nonzero;"/><path d="M554.152,137.622c-0.385,0 -0.709,-0.132 -0.973,-0.396c-0.265,-0.265 -0.397,-0.589 -0.397,-0.974c0,-0.408 0.132,-0.739 0.397,-0.991c0.264,-0.253 0.588,-0.379 0.973,-0.379c0.409,0 0.733,0.126 0.973,0.379c0.241,0.252 0.361,0.583 0.361,0.991c-0,0.385 -0.12,0.709 -0.361,0.974c-0.24,0.264 -0.564,0.396 -0.973,0.396Zm-0,-14.925c-0.385,-0 -0.709,-0.132 -0.973,-0.397c-0.265,-0.264 -0.397,-0.589 -0.397,-0.973c0,-0.409 0.132,-0.739 0.397,-0.992c0.264,-0.252 0.588,-0.378 0.973,-0.378c0.409,-0 0.733,0.126 0.973,0.378c0.241,0.253 0.361,0.583 0.361,0.992c-0,0.384 -0.12,0.709 -0.361,0.973c-0.24,0.265 -0.564,0.397 -0.973,0.397Z" style="fill-rule:nonzero;"/></g></g></svg>